<?xml version="1.0" encoding="UTF-8"?> <svg xmlns="http://www.w3.org/2000/svg" width="477" height="507" viewBox="0 0 477 507" fill="none"><path opacity="0.15" d="M241.571 104.656C253.139 103.927 264.082 101.842 274.712 102.885C313.898 106.532 342.35 137.485 343.601 176.88C343.705 180.631 345.06 182.299 348.29 183.862C373.094 195.326 386.33 221.902 380.494 247.956C374.553 274.845 351.834 292.979 324.216 292.979C241.779 292.979 159.447 292.979 77.01 292.979C38.9703 292.979 7.28795 266.403 1.03485 228.989C-5.11404 192.304 16.6676 156.244 52.3103 144.363C56.1663 143.113 57.3127 141.445 57.5212 137.485C59.9182 91.7332 90.35 55.5694 133.601 46.9193C177.893 38.0607 221.352 60.4677 240.007 101.738C240.841 103.093 241.467 104.448 241.571 104.656Z" fill="#406EF1"></path><path d="M186.231 462.646L403.526 175.525L208.325 238.056L186.231 462.646Z" fill="#111428"></path><path d="M154.965 323.932L26.881 300.483L477 109.763L154.965 323.932Z" fill="#406EF1"></path><path d="M223.333 340.815L353.918 400.845L477 109.763L223.333 340.815Z" fill="#2C5CC6"></path><path d="M154.965 323.932L186.231 462.646L223.333 340.815L477 109.763L154.965 323.932Z" fill="#283359"></path></svg> 