<?xml version="1.0" encoding="UTF-8"?> <svg xmlns="http://www.w3.org/2000/svg" width="477" height="507" viewBox="0 0 477 507" fill="none"><g clip-path="url(#clip0)"><path opacity="0.15" d="M230.797 56.0103C241.897 55.3103 252.297 53.4103 262.497 54.3103C299.897 57.8103 327.197 87.4103 328.397 125.01C328.497 128.61 329.797 130.21 332.897 131.61C356.597 142.51 369.197 167.91 363.697 192.91C357.997 218.61 336.297 236.01 309.897 236.01C231.097 236.01 152.397 236.01 73.5967 236.01C37.1967 236.01 6.99668 210.61 0.996678 174.81C-4.90332 139.81 15.8967 105.31 49.9967 93.9103C53.5967 92.7103 54.7967 91.1103 54.9967 87.3103C57.2967 43.5103 86.3967 9.01034 127.797 0.81034C170.097 -7.58966 211.697 13.8103 229.497 53.2103C230.097 54.5103 230.697 55.9103 230.797 56.0103Z" fill="#406EF1"></path><path d="M316.397 331.31L328.797 269.31H254.497L341.197 170.21L328.797 232.21H344.697V111.21C339.497 110.61 334.197 110.31 328.797 110.31C246.697 110.31 180.097 176.91 180.097 259.01L141.097 323.91C135.697 333.01 139.997 344.71 149.997 348.11L179.997 358.11V409.71C179.997 427.91 194.897 442.71 212.997 442.71H247.097C256.197 442.71 263.597 450.11 263.597 459.21V506.71H344.497V299.01L316.397 331.31Z" fill="#406EF1"></path><path d="M344.597 111.21V232.21H403.097L344.597 299.01V506.81H426.897V370.51C457.797 343.31 477.397 303.51 477.397 259.01C477.497 182.31 419.297 119.11 344.597 111.21Z" fill="#3365D3"></path><path d="M403.097 232.21H344.597V299.01L403.097 232.21Z" fill="#101428"></path><path d="M341.197 170.21L254.397 269.41H328.797L316.397 331.31L344.597 299.01V232.21H328.797L341.197 170.21Z" fill="#263459"></path></g><defs><clipPath id="clip0"><rect width="477" height="507" fill="white"></rect></clipPath></defs></svg> 