<?xml version="1.0" encoding="UTF-8"?> <svg xmlns="http://www.w3.org/2000/svg" width="528" height="507" viewBox="0 0 528 507" fill="none"><path opacity="0.15" d="M237.208 107.585C248.608 106.885 259.308 104.885 269.808 105.885C308.308 109.485 336.208 139.885 337.508 178.585C337.608 182.285 338.908 183.885 342.108 185.385C366.408 196.585 379.408 222.685 373.708 248.385C367.808 274.785 345.608 292.585 318.408 292.585C237.508 292.585 156.608 292.585 75.6077 292.585C38.2077 292.585 7.2077 266.485 1.0077 229.685C-4.9923 193.685 16.3077 158.285 51.4077 146.585C55.1077 145.385 56.3077 143.685 56.5077 139.785C58.9077 94.7854 88.8077 59.3854 131.308 50.8854C174.808 42.1854 217.408 64.1854 235.808 104.685C236.508 106.085 237.108 107.485 237.208 107.585Z" fill="#406EF1"></path><path d="M110.908 262.485C72.1077 305.085 48.5077 361.685 48.5077 423.785H124.408C124.408 382.585 139.608 344.985 164.708 316.285L110.908 262.485Z" fill="#406EF1"></path><path d="M122.408 250.685L176.108 304.385C203.508 278.685 239.708 262.285 279.808 260.285V184.285C218.808 186.485 163.508 211.285 122.408 250.685Z" fill="#406EF1"></path><path d="M453.608 250.685C412.408 211.285 357.208 186.385 296.208 184.385V260.385C336.208 262.385 372.508 278.785 399.908 304.485L453.608 250.685Z" fill="#2C5CC6"></path><path d="M465.108 262.485L411.308 316.285C436.408 345.085 451.608 382.685 451.608 423.785H527.508C527.508 361.685 503.908 305.085 465.108 262.485Z" fill="#2C5CC6"></path><path d="M275.808 437.485C269.108 430.785 269.108 419.885 275.808 413.085C279.008 409.885 283.108 408.285 287.208 408.085V389.585C278.308 389.785 269.508 393.185 262.708 399.985C248.808 413.885 248.808 436.585 262.708 450.485C269.508 457.285 278.308 460.685 287.208 460.885V442.385C283.108 442.285 279.008 440.685 275.808 437.485Z" fill="#283359"></path><path d="M403.108 313.285C403.508 312.785 402.908 312.085 402.308 312.485L296.408 390.685C293.408 389.985 290.208 389.685 287.108 389.685V408.185C291.808 407.985 296.508 409.585 300.108 413.185C306.808 419.885 306.808 430.785 300.108 437.585C296.508 441.185 291.808 442.785 287.108 442.585V460.985C296.508 461.185 306.008 457.785 313.108 450.585C322.008 441.685 325.308 429.085 322.708 417.585L403.108 313.285Z" fill="black"></path></svg> 