<svg width="17.6" height="17.6" viewBox="0 0 44 44" fill="none" xmlns="http://www.w3.org/2000/svg">
<path d="M21.8949 10.6605C15.6832 10.6605 10.6727 15.6697 10.6727 21.88C10.6727 28.0903 15.6832 33.0995 21.8949 33.0995C28.1066 33.0995 33.117 28.0903 33.117 21.88C33.117 15.6697 28.1066 10.6605 21.8949 10.6605ZM21.8949 29.1741C17.8807 29.1741 14.599 25.903 14.599 21.88C14.599 17.857 17.8709 14.5859 21.8949 14.5859C25.9188 14.5859 29.1907 17.857 29.1907 21.88C29.1907 25.903 25.9091 29.1741 21.8949 29.1741V29.1741ZM36.1936 10.2016C36.1936 11.6565 35.0216 12.8185 33.5761 12.8185C32.1208 12.8185 30.9585 11.6467 30.9585 10.2016C30.9585 8.75639 32.1306 7.58464 33.5761 7.58464C35.0216 7.58464 36.1936 8.75639 36.1936 10.2016ZM43.6262 12.8575C43.4601 9.35203 42.6593 6.24689 40.0906 3.68857C37.5316 1.13025 34.4258 0.329555 30.9195 0.153792C27.3057 -0.0512641 16.4743 -0.0512641 12.8605 0.153792C9.36399 0.31979 6.25812 1.12049 3.68944 3.67881C1.12075 6.23713 0.329632 9.34227 0.153828 12.8478C-0.0512761 16.4607 -0.0512761 27.2896 0.153828 30.9025C0.319865 34.408 1.12075 37.5131 3.68944 40.0714C6.25812 42.6297 9.35422 43.4304 12.8605 43.6062C16.4743 43.8113 27.3057 43.8113 30.9195 43.6062C34.4258 43.4402 37.5316 42.6395 40.0906 40.0714C42.6495 37.5131 43.4504 34.408 43.6262 30.9025C43.8313 27.2896 43.8313 16.4704 43.6262 12.8575V12.8575ZM38.9576 34.779C38.1958 36.6929 36.721 38.1673 34.7969 38.9387C31.9157 40.0812 25.0789 39.8175 21.8949 39.8175C18.7109 39.8175 11.8643 40.0714 8.99285 38.9387C7.07854 38.1771 5.60374 36.7026 4.83216 34.779C3.68944 31.8985 3.95314 25.0633 3.95314 21.88C3.95314 18.6967 3.6992 11.8518 4.83216 8.98098C5.59398 7.06712 7.06877 5.59267 8.99285 4.82126C11.8741 3.67881 18.7109 3.94245 21.8949 3.94245C25.0789 3.94245 31.9255 3.68857 34.7969 4.82126C36.7112 5.5829 38.186 7.05736 38.9576 8.98098C40.1003 11.8615 39.8366 18.6967 39.8366 21.88C39.8366 25.0633 40.1003 31.9082 38.9576 34.779Z" fill="white"/>
</svg>
