<svg width="44" height="44" viewBox="0 0 44 44" fill="none" xmlns="http://www.w3.org/2000/svg">
<path d="M9.79521 43.74H0.722821V14.537H9.79521V43.74ZM5.25413 10.5535C2.35308 10.5535 0 8.15164 0 5.25185C2.07645e-08 3.85897 0.553559 2.52314 1.5389 1.53823C2.52424 0.553318 3.86065 0 5.25413 0C6.64761 0 7.98402 0.553318 8.96936 1.53823C9.9547 2.52314 10.5083 3.85897 10.5083 5.25185C10.5083 8.15164 8.15421 10.5535 5.25413 10.5535ZM43.7502 43.74H34.6974V29.5242C34.6974 26.1362 34.629 21.7914 29.9805 21.7914C25.2636 21.7914 24.5408 25.4723 24.5408 29.2801V43.74H15.4781V14.537H24.1794V18.5206H24.3063C25.5175 16.2261 28.4762 13.8048 32.8903 13.8048C42.0721 13.8048 43.76 19.8484 43.76 27.6984V43.74H43.7502Z" fill="white"/>
</svg>
