<svg width="324" height="147" viewBox="0 0 324 147" fill="none" xmlns="http://www.w3.org/2000/svg">
<g clip-path="url(#clip0_449_2)" filter="url(#filter0_i_449_2)">
<path d="M37.1 144.49H0.76V122.91C10.03 136.91 19.49 142.98 29.76 142.98C39.41 142.98 47.36 137.87 47.36 129.35C47.32 108.53 0 107.58 0 77.1099C0 60.8299 13.44 49.8599 33.88 49.8599H64.35V71.4299C53.75 56.4299 45.24 51.3699 35.2 51.3699C26.31 51.3699 20.63 55.7199 20.63 62.9199C20.63 86.5699 71.92 81.4599 71.92 117.24C71.92 134.65 59.81 144.49 37.1 144.49V144.49ZM89 30.7399L115.23 0.249933C115.58 -0.160067 115.86 -0.0500671 115.86 0.479933V144.48H89V30.7399ZM144.08 86.3899L187.08 144.49H153.72L125 104.93L144.08 86.3899ZM179.66 49.8599L149.17 78.9999C151.63 64.9999 143.49 53.6399 128.54 49.8599H179.66ZM188.35 119.32C188.35 82.9799 248.92 93.5799 248.92 65.9399C248.92 57.2399 242.67 51.3699 233.4 51.3699C223.56 51.3699 213.34 58.3699 204.25 71.4299V49.8599H238.89C262 49.8599 275.61 61.9999 275.61 82.5999V144.49H248.73V74.9999C241.35 90.3599 216 92.2499 216 115.53C216 127.46 222.62 135.03 233 135.03C235.464 135.054 237.908 134.58 240.185 133.637C242.462 132.694 244.525 131.3 246.25 129.54C240.76 140.54 231.49 146.01 218.62 146.01C200.28 146 188.35 135.6 188.35 119.32ZM319.56 144.49V49.8599H292.68V144.49H319.56ZM323.42 19.4199C323.173 17.3121 322.51 15.2745 321.468 13.4256C320.426 11.5768 319.027 9.95365 317.352 8.65075C315.676 7.34786 313.759 6.39122 311.71 5.83656C309.662 5.28189 307.524 5.14026 305.42 5.41993C302.723 5.67233 300.137 6.62056 297.916 8.17185C295.695 9.72313 293.915 11.8243 292.75 14.2699C292.718 14.3396 292.709 14.4176 292.725 14.4926C292.74 14.5676 292.779 14.6357 292.836 14.687C292.893 14.7383 292.965 14.7701 293.041 14.7779C293.117 14.7856 293.194 14.7688 293.26 14.7299C295.831 13.0984 298.815 12.2346 301.86 12.2399C306.167 12.2505 310.296 13.9656 313.342 17.0105C316.389 20.0554 318.107 24.1825 318.12 28.4899C318.119 30.0843 317.89 31.6704 317.44 33.1999C317.418 33.2731 317.421 33.3515 317.448 33.423C317.474 33.4946 317.524 33.5554 317.588 33.5962C317.653 33.637 317.729 33.6555 317.805 33.649C317.881 33.6424 317.953 33.6112 318.01 33.5599C319.982 31.8116 321.504 29.6135 322.445 27.152C323.387 24.6905 323.722 22.0382 323.42 19.4199V19.4199Z" fill="white"/>
</g>
<defs>
<filter id="filter0_i_449_2" x="0" y="0" width="323.53" height="150.01" filterUnits="userSpaceOnUse" color-interpolation-filters="sRGB">
<feFlood flood-opacity="0" result="BackgroundImageFix"/>
<feBlend mode="normal" in="SourceGraphic" in2="BackgroundImageFix" result="shape"/>
<feColorMatrix in="SourceAlpha" type="matrix" values="0 0 0 0 0 0 0 0 0 0 0 0 0 0 0 0 0 0 127 0" result="hardAlpha"/>
<feOffset dy="4"/>
<feGaussianBlur stdDeviation="2"/>
<feComposite in2="hardAlpha" operator="arithmetic" k2="-1" k3="1"/>
<feColorMatrix type="matrix" values="0 0 0 0 0 0 0 0 0 0 0 0 0 0 0 0 0 0 0.25 0"/>
<feBlend mode="normal" in2="shape" result="effect1_innerShadow_449_2"/>
</filter>
<clipPath id="clip0_449_2">
<rect width="323.53" height="146.01" fill="white"/>
</clipPath>
</defs>
</svg>
