<svg width="30" height="30" viewBox="0 0 50 50" fill="none" xmlns="http://www.w3.org/2000/svg">
<path d="M49.8922 14.8799L49.316 13.4642C48.9937 12.6831 48.0855 12.3023 47.2846 12.6147L44.5305 13.7376V10.9061C44.5305 10.0664 43.8273 9.38293 42.9679 9.38293H41.4053C40.5458 9.38293 39.8426 10.0664 39.8426 10.9061V15.4853C39.8426 15.5341 39.8719 15.5829 39.8719 15.6317L34.3637 17.8774C33.7875 16.901 33.0648 16.032 32.2151 15.2802C33.5433 13.6594 34.3637 11.6286 34.3637 9.37317C34.3637 4.1984 30.1642 0 24.988 0C19.8118 0 15.6123 4.1984 15.6123 9.37317C15.6123 11.6286 16.4424 13.6594 17.7609 15.2802C16.9112 16.032 16.1983 16.901 15.6123 17.8774L10.104 15.6317C10.1138 15.5829 10.1333 15.5341 10.1333 15.4853V10.9061C10.1529 10.0664 9.4497 9.38293 8.59026 9.38293H7.02764C6.16819 9.38293 5.46502 10.0664 5.46502 10.9061V13.7376L2.72067 12.6147C1.91982 12.3023 1.01155 12.6831 0.68926 13.4642L0.113045 14.8799C-0.209246 15.661 0.181409 16.5495 0.982252 16.8619L14.1864 22.2515C14.1473 22.6421 14.0692 23.0326 14.0692 23.4427C14.0692 24.4288 14.2352 25.3564 14.4794 26.2644C11.8034 28.9494 10.1529 32.6401 10.1529 36.7213C10.1529 41.9938 12.9265 46.5729 17.0675 49.1994C17.9757 49.7754 19.05 50 20.1243 50H29.8126C31.1115 50 32.3811 49.5997 33.4457 48.8576C37.987 45.704 40.7119 40.1289 39.5887 33.9582C39.0516 31.0096 37.5866 28.3343 35.5259 26.2449C35.7701 25.3466 35.9361 24.4191 35.9361 23.4427C35.9361 23.0326 35.858 22.6518 35.8189 22.2515L49.023 16.8619C49.8141 16.5593 50.2048 15.6708 49.8922 14.8799ZM21.8725 9.38293C21.0131 9.38293 20.3099 8.67995 20.3099 7.82074C20.3099 6.96153 21.0131 6.25854 21.8725 6.25854C22.732 6.25854 23.4351 6.96153 23.4351 7.82074C23.4351 8.67995 22.732 9.38293 21.8725 9.38293ZM24.9978 35.9402C24.1383 35.9402 23.4351 35.2373 23.4351 34.3781C23.4351 33.5188 24.1383 32.8159 24.9978 32.8159C25.8572 32.8159 26.5604 33.5188 26.5604 34.3781C26.5604 35.2373 25.8572 35.9402 24.9978 35.9402ZM24.9978 29.6915C24.1383 29.6915 23.4351 28.9885 23.4351 28.1293C23.4351 27.2701 24.1383 26.5671 24.9978 26.5671C25.8572 26.5671 26.5604 27.2701 26.5604 28.1293C26.5604 28.9885 25.8572 29.6915 24.9978 29.6915ZM24.9978 23.4427C24.1383 23.4427 23.4351 22.7397 23.4351 21.8805C23.4351 21.0213 24.1383 20.3183 24.9978 20.3183C25.8572 20.3183 26.5604 21.0213 26.5604 21.8805C26.5604 22.7397 25.8572 23.4427 24.9978 23.4427ZM24.9978 14.8506C24.9978 14.8506 23.4351 12.5854 23.4351 11.7262C23.4351 10.867 24.1383 10.164 24.9978 10.164C25.8572 10.164 26.5604 10.867 26.5604 11.7262C26.5604 12.5854 24.9978 14.8506 24.9978 14.8506ZM28.123 9.38293C27.2636 9.38293 26.5604 8.67995 26.5604 7.82074C26.5604 6.96153 27.2636 6.25854 28.123 6.25854C28.9824 6.25854 29.6856 6.96153 29.6856 7.82074C29.6856 8.67995 28.9824 9.38293 28.123 9.38293Z" fill="white"/>
</svg>
