<svg  height="17.6px" width="20px" viewBox="0 0 50 41" fill="none" xmlns="http://www.w3.org/2000/svg">
<path d="M44.8605 10.1182C44.8923 10.5623 44.8923 11.0064 44.8923 11.4505C44.8923 24.9943 34.5814 40.6 15.7361 40.6C9.93021 40.6 4.53683 38.9188 0 36.0008C0.824906 36.0959 1.61798 36.1277 2.47462 36.1277C7.26517 36.1277 11.6751 34.5101 15.1967 31.7505C10.6916 31.6553 6.91624 28.7055 5.61545 24.6455C6.25002 24.7406 6.8845 24.804 7.55081 24.804C8.47083 24.804 9.39096 24.6771 10.2475 24.4552C5.55207 23.5035 2.03038 19.3801 2.03038 14.4003V14.2735C3.39454 15.0347 4.98098 15.5105 6.66233 15.5739C3.90216 13.7341 2.09386 10.594 2.09386 7.04149C2.09386 5.1384 2.60138 3.39387 3.48976 1.87136C8.53421 8.08823 16.1168 12.1482 24.6192 12.5923C24.4606 11.831 24.3654 11.0382 24.3654 10.2452C24.3654 4.59917 28.934 0 34.6129 0C37.5634 0 40.2284 1.23703 42.1003 3.23531C44.4162 2.79127 46.637 1.93482 48.6041 0.761256C47.8426 3.14022 46.2246 5.1385 44.099 6.40716C46.1612 6.18524 48.16 5.61417 50 4.82128C48.6043 6.8512 46.8593 8.6591 44.8605 10.1182V10.1182Z" fill="white"/>
</svg>
