<svg width="23.5px" height="17.6px" viewBox="0 0 48 34" fill="none" xmlns="http://www.w3.org/2000/svg">
<path d="M46.4095 5.21658C45.8644 3.16322 44.2582 1.54606 42.2189 0.997248C38.5224 0 23.7 0 23.7 0C23.7 0 8.87768 0 5.18113 0.997248C3.14178 1.54614 1.53561 3.16322 0.990469 5.21658C0 8.93842 0 16.7037 0 16.7037C0 16.7037 0 24.469 0.990469 28.1908C1.53561 30.2442 3.14178 31.7939 5.18113 32.3428C8.87768 33.34 23.7 33.34 23.7 33.34C23.7 33.34 38.5223 33.34 42.2189 32.3428C44.2582 31.7939 45.8644 30.2442 46.4095 28.1908C47.4 24.469 47.4 16.7037 47.4 16.7037C47.4 16.7037 47.4 8.93842 46.4095 5.21658V5.21658ZM18.8522 23.754V9.65341L31.2408 16.7039L18.8522 23.754V23.754Z" fill="white"/>
</svg>
